<svg xmlns="http://www.w3.org/2000/svg" viewBox="0 0 34.55 29.92"><defs><style>.cls-1{fill:#fff;}</style></defs><title>Asset 1</title><g id="Layer_2" data-name="Layer 2"><g id="Layer_1-2" data-name="Layer 1"><path class="cls-1" d="M21.78,22.39l3,3.82C20.69,30.32,13,31.13,7.73,28.07A15,15,0,0,1,15,0,15.13,15.13,0,0,1,29.79,12.46h.79c1.11,0,2.22,0,3.33,0a.88.88,0,0,1,.62.29c.07.1-.07.43-.2.59q-3.2,4-6.43,7.92c-.51.62-1,.6-1.49,0q-3.2-3.92-6.38-7.87c-.14-.17-.29-.51-.21-.64a.86.86,0,0,1,.65-.26c1.08,0,2.17,0,3.25,0h.82c-.38-3.25-4.09-6.7-7.79-7.31A10,10,0,0,0,6,10.67,9.91,9.91,0,0,0,8.45,22.5,9.7,9.7,0,0,0,15.1,25C17.31,24.94,18.45,24.5,21.78,22.39Z"/></g></g></svg>